<svg width="51" height="51" fill="none" xmlns="http://www.w3.org/2000/svg"><path d="M50.422 25.82a25 25 0 11-49.999 0 25 25 0 0149.999 0z" fill="#034EA2"/><path d="M42.832 35.794v-.827H39.64v-1.17h-3.906a1.667 1.667 0 00-1.662 1.662v1.215H13.385a2.379 2.379 0 01-2.375-2.376l-.006-12.366 10.85-10.852a1.487 1.487 0 012.1 0l11.129 11.128-.872.872-.888-.89c-.02-.017-.043-.025-.063-.04l-9.203-9.204a1.673 1.673 0 00-2.366 0l-9.505 9.505v11.144a1.856 1.856 0 001.856 1.858h17.411a1.858 1.858 0 001.858-1.858v-9.71l.9.902 2.579-2.58-11.98-11.98a2.69 2.69 0 00-3.809 0L9.797 21.432l.006 12.866a3.59 3.59 0 003.582 3.583h20.687v1.215a1.665 1.665 0 001.662 1.662h3.906v-1.044h3.192v-.83H39.64v-3.09h3.192z" fill="#6ACFF6"/><path d="M23.242 31.966l-5.307-4.439 4.298 5.498s-9.164 1.608-7.146-8.212c10.415-1.62 8.155 7.153 8.155 7.153z" fill="#fff"/><path d="M25.515 32.462l-.949-11.087-.445 6.476a5.627 5.627 0 00-4.613-3.753 11.85 11.85 0 015.213-5.676c11.199 7.714.794 14.04.794 14.04z" fill="#fff"/></svg>