<svg width="51" height="51" fill="none" xmlns="http://www.w3.org/2000/svg"><path d="M3.274 3.944h43.75v43.75H3.274V3.944zM.148 50.82h49.998v-50H.148v50z" fill="#0074BC"/><path d="M6.398 18.005h18.75a3.125 3.125 0 10-3.126-3.124h-3.124a6.25 6.25 0 116.25 6.248H6.398v-3.124zm0 12.503h25a6.25 6.25 0 11-6.25 6.25h3.124a3.125 3.125 0 103.126-3.124h-25v-3.126z" fill="#0074BC"/><path d="M31.398 21.133a6.25 6.25 0 116.25 6.25H6.398v-3.126h31.25a3.124 3.124 0 10-3.126-3.124h-3.124z" fill="#0074BC"/></svg>