<svg width="50" height="51" fill="none" xmlns="http://www.w3.org/2000/svg"><path d="M25 .82a25 25 0 110 50 25 25 0 010-50z" fill="#034EA2"/><path d="M24.999 35.195a3.125 3.125 0 11.002 6.25 3.125 3.125 0 01-.002-6.25zM25 27.383a10.91 10.91 0 017.733 3.202l-3.314 3.316a6.25 6.25 0 00-8.84 0l-3.313-3.314a10.903 10.903 0 017.733-3.204z" fill="#fff"/><path d="M25 19.57a18.693 18.693 0 0113.26 5.492l-3.315 3.314a14.067 14.067 0 00-19.889 0l-3.314-3.314a18.69 18.69 0 0113.259-5.492z" fill="#fff"/><path d="M24.998 11.758a26.487 26.487 0 0118.784 7.779l-3.315 3.316a21.876 21.876 0 00-30.936 0l-3.316-3.315a26.477 26.477 0 0118.783-7.78z" fill="#fff"/><path d="M25 27.383a10.911 10.911 0 017.734 3.202l-3.315 3.316A6.228 6.228 0 0025 32.071v-4.688zm0-7.813a18.693 18.693 0 0113.258 5.492l-3.314 3.314A14.024 14.024 0 0025 24.258V19.57zm0-7.812a26.487 26.487 0 0118.783 7.779l-3.314 3.316A21.808 21.808 0 0025 16.446v-4.688z" fill="#6ACFF6"/></svg>