<svg width="50" height="51" fill="none" xmlns="http://www.w3.org/2000/svg"><path d="M25 .82a25 25 0 110 50 25 25 0 010-50z" fill="#034EA2"/><path d="M18.93 18.696v12.727l12.77 6.366 12.773-6.366V18.696L31.7 12.332l-12.77 6.364z" fill="#6ACFF6"/><path d="M24.59 20.416l3.947-.564-.564 3.947-.935-.935a4.787 4.787 0 005.558 6.685l.411 1.54a6.381 6.381 0 01-7.147-9.403l-1.27-1.27zm13.535 9.025l-3.947.565.564-3.948.935.935a4.786 4.786 0 00-5.558-6.685l-.412-1.54a6.382 6.382 0 017.148 9.403l1.27 1.27z" fill="#034EA2"/><path d="M21.992 24.405h-5.62l5.21-8.206h-6.565L8.863 28.507h4.841l-2.932 6.96a.746.746 0 001.258.768l9.963-11.83z" fill="#fff"/><path d="M10.726 27.355h4.713l-2.57 6.097 6.653-7.898H14.28l5.21-8.206h-3.76l-5.005 10.007zm.739 10.297c-.351 0-.695-.098-.994-.282a1.884 1.884 0 01-.756-2.352l2.26-5.362H7.003l7.304-14.61h9.369l-5.212 8.207h6.001L12.91 36.973a1.884 1.884 0 01-1.446.679z" fill="#034EA2"/><path d="M21.992 24.694h-5.62l5.21-8.206h-6.565L8.863 28.796h4.841l-4.84 11.489 13.128-15.59zm-2.826-13.733V9.09h-1.572v1.871H15.77v1.464h1.825v1.872h1.572v-1.872h1.81v-1.464h-1.81z" fill="#fff"/></svg>