<svg width="51" height="51" fill="none" xmlns="http://www.w3.org/2000/svg"><path d="M25.422.82a25 25 0 11-23.1 15.432A24.992 24.992 0 0125.423.82z" fill="#034EA2"/><path d="M22.855 43.007v-7.812h2.344l-3.906-6.25-3.906 6.25h2.344v7.812h3.124z" fill="#6ACFF6"/><path d="M27.543 32.07v7.812H25.2l3.906 6.25 3.906-6.25H30.67V32.07h-3.126zM44.17 13.32H6.67c-.656 0-1.062.437-.936.937l3.124 12.469a1.13 1.13 0 001.125.656h30.875a1.13 1.13 0 001.125-.656l3.124-12.469c.126-.5-.28-.937-.937-.937z" fill="#fff"/><path d="M10.453 20.258l.312 1.53h29.313l.312-1.53H10.453zm-.875-4.188l.345 1.721h30.97l.374-1.72H9.578zm1.625 7.938l.312 1.407h27.812l.314-1.407H11.203z" fill="#034EA2"/></svg>