<svg width="50" height="51" fill="none" xmlns="http://www.w3.org/2000/svg"><path d="M26.548 24.275l-11.58-11.58H7.5v4.375h5.658l10.296 10.296 3.094-3.09z" fill="#F3926D"/><path d="M25.003 10.352l5.413 5.413-1.546 1.55-3.867-3.87-3.867 3.87-1.546-1.55 5.413-5.413zm10.054 10.056l5.414 5.413-5.414 5.416-1.546-1.547 3.869-3.869-3.869-3.867 1.546-1.546zm-4.64 15.468l-5.414 5.413-5.413-5.413 1.546-1.547 3.867 3.867 3.867-3.867 1.546 1.547zm-15.469-4.64l-5.413-5.415 5.413-5.413 1.547 1.546-3.867 3.867 3.867 3.87-1.547 1.546z" fill="#EC4D28"/><path d="M23.453 27.367l11.58 11.578h3.093v2.187l6.562-4.377-6.562-4.374v2.19h-1.283L26.546 24.272l-3.093 3.094z" fill="#EC4D28"/><path d="M11.876 41.137L5.313 36.76l6.563-4.375v2.19h1.281l7.978-7.977 3.09 3.09-9.257 9.26h-3.092v2.189z" fill="#F3926D"/><path d="M3.126 3.942H46.88v43.754H3.126V3.943zM0 .82v50h50v-50H0z" fill="#EC4D28"/><path d="M25.777 21.954l9.259-9.259h7.467v4.375h-5.657l-7.977 7.977-3.092-3.093z" fill="#EC4D28"/></svg>