<svg width="21" height="19" fill="none" xmlns="http://www.w3.org/2000/svg"><path d="M19.61 6.855h-2.063l-4.511-5.639a.586.586 0 00-.915.732l3.926 4.907H4.344L8.27 1.948a.586.586 0 00-.915-.732l-4.512 5.64H.781a.586.586 0 00-.586.585v1.172c0 .324.263.586.586.586H19.61a.586.586 0 00.586-.586V7.441a.586.586 0 00-.586-.586zM3.734 18.15a.586.586 0 00.563.424h11.797a.586.586 0 00.564-.425l2.222-7.778H1.512l2.222 7.778zm9.146-2.602l.585-3.515a.586.586 0 111.156.192l-.585 3.516a.586.586 0 11-1.156-.193zm-3.27-3.42a.586.586 0 011.172 0v3.517a.586.586 0 11-1.172 0v-3.516zm-3.32-.577a.586.586 0 01.675.482l.586 3.515a.586.586 0 01-1.156.193l-.586-3.516a.586.586 0 01.482-.674z" fill="#0076BD"/></svg>