<svg width="21" height="19" fill="none" xmlns="http://www.w3.org/2000/svg"><path d="M19.48 6.486h-2.062L12.907.846a.586.586 0 00-.915.733l3.926 4.907H4.215L8.141 1.58a.586.586 0 00-.915-.732l-4.512 5.64H.652a.586.586 0 00-.586.585v1.172c0 .324.263.586.586.586H19.48a.586.586 0 00.586-.586V7.072a.586.586 0 00-.585-.586zM3.605 17.78a.586.586 0 00.564.425h11.796a.586.586 0 00.564-.425l2.222-7.778H1.383l2.222 7.778zm9.146-2.6l.586-3.516a.586.586 0 111.156.192l-.586 3.516a.586.586 0 11-1.156-.193zm-3.27-3.42a.586.586 0 011.172 0v3.515a.586.586 0 01-1.172 0V11.76zm-3.319-.578a.586.586 0 01.674.482l.586 3.515a.586.586 0 01-1.156.193l-.586-3.516a.586.586 0 01.482-.674z" fill="#fff"/></svg>