<svg width="18" height="18" fill="none" xmlns="http://www.w3.org/2000/svg"><path d="M17.335 14.084l-1.868-1.294-1.66-1.15a.717.717 0 00-.989.167l-1.027 1.372a.714.714 0 01-.934.201c-.698-.402-1.522-.782-3.341-2.673-1.82-1.892-2.187-2.746-2.575-3.47a.78.78 0 01.194-.97L6.455 5.2a.784.784 0 00.161-1.026l-1.073-1.67L4.264.51a.72.72 0 00-.99-.231l-1.476.919a1.864 1.864 0 00-.819 1.1c-.403 1.528-.484 4.898 4.717 10.3 5.2 5.4 8.446 5.315 9.917 4.896a1.814 1.814 0 001.06-.85l.885-1.532a.782.782 0 00-.223-1.028zM10.4 2.885c2.726.003 4.935 2.297 4.939 5.128 0 .167.13.302.29.302.16 0 .29-.135.29-.302-.003-3.164-2.472-5.728-5.52-5.732-.16 0-.29.135-.29.302 0 .167.13.302.29.302z" fill="#0C4F9E"/><path d="M10.4 4.695c1.764.002 3.193 1.487 3.195 3.319 0 .166.13.301.291.301.16 0 .29-.135.29-.301-.002-2.165-1.691-3.92-3.776-3.922-.16 0-.29.135-.29.302 0 .166.13.301.29.301z" fill="#0C4F9E"/><path d="M10.4 6.506c.802 0 1.451.675 1.452 1.508 0 .167.13.302.29.302a.297.297 0 00.292-.302c-.002-1.166-.911-2.11-2.034-2.112-.16 0-.29.135-.29.302 0 .167.13.302.29.302z" fill="#0C4F9E"/></svg>