<svg width="60" height="57" fill="none" xmlns="http://www.w3.org/2000/svg"><path d="M59.82 32.165c-.149-.297-.52-.446-.818-.52-1.712 0-16.444-.596-16.444-17.709a.985.985 0 00-.967-.967.985.985 0 00-.967.967c0 17.113-14.733 17.709-16.37 17.709a.845.845 0 00-.595.223c-.149.074-.223.223-.297.297-.15.298-.15.67 0 .968.148.297.52.52.893.52h.074c1.711 0 16.369.596 16.369 17.709 0 .52.447.967.967.967a.985.985 0 00.968-.967c0-17.039 14.657-17.709 16.369-17.709.372 0 .67-.223.893-.52a.915.915 0 00-.075-.968zM41.59 44.07c-2.157-7.068-7.44-10.119-11.606-11.458 4.166-1.34 9.45-4.39 11.607-11.459 2.158 7.069 7.44 10.12 11.607 11.459-4.167 1.339-9.45 4.39-11.607 11.458zM29.314 12.82c.52 0 .967-.446.967-1.04a.985.985 0 00-.967-.968c-.893 0-8.929-.298-8.929-9.673a.985.985 0 00-.967-.967.985.985 0 00-.967.967c0 9.375-8.036 9.673-8.929 9.673h-.074c-.521.074-.893.446-.893.967 0 .52.446.967.967.967.967 0 8.929.298 8.929 9.673 0 .52.446.967.967.967.446.075.893-.372.893-.893 0-9.375 8.035-9.672 8.928-9.672h.075zm-9.97 4.242c-1.191-2.828-3.349-4.39-5.358-5.283 2.158-.893 4.167-2.604 5.357-5.283 1.19 2.828 3.349 4.39 5.358 5.283-2.158.893-4.167 2.604-5.358 5.283zM20.76 44.37c-.894 0-8.93-.297-8.93-9.672a.985.985 0 00-.967-.968.985.985 0 00-.967.968c0 9.375-8.036 9.672-8.929 9.672H.893c-.521.075-.893.447-.893.968 0 .52.446.967.967.967.968 0 8.929.298 8.929 9.673 0 .52.446.967.967.967.447.149.893-.298.893-.893 0-9.375 8.036-9.673 8.929-9.673h.074c.52 0 .967-.446.967-1.041a.985.985 0 00-.967-.968zm-9.971 6.325c-1.265-2.828-3.348-4.39-5.357-5.283 2.157-.893 4.166-2.604 5.357-5.283 1.19 2.828 3.348 4.39 5.357 5.283-2.158.893-4.167 2.604-5.357 5.283z" fill="#0076BD"/></svg>