<svg width="183" height="107" fill="none" xmlns="http://www.w3.org/2000/svg"><path d="M53.677 45.716l-2.466-10.45h1.761l1.996 8.689 5.05-8.69h1.878l-5.988 10.45h-2.231zm20.43-4.345h-7.162v1.057c0 .587.235 1.057.705 1.527.352.47.939.704 1.643.704h.118a3.25 3.25 0 001.526-.352c.47-.235.94-.47 1.41-.94.117 0 .117-.117.234-.117.118 0 .118-.117.118-.117l.939 1.056c-.705.705-1.409 1.175-2.114 1.41-.704.234-1.526.47-2.23.47h-.118c-1.174 0-2.113-.353-2.7-.94-.588-.587-.94-1.41-1.057-2.231v-1.644c.234-.94.822-1.761 1.644-2.466.822-.704 1.996-1.174 3.287-1.174 1.175 0 2.114.352 2.7.94a3.64 3.64 0 011.058 2.113v.704c0-.117 0-.117 0 0zm-3.992-2.7c-.234 0-.47 0-.704.117-.235 0-.47.118-.705.235-.234.117-.587.235-.822.47-.234.235-.47.352-.587.704h5.167c-.118-.352-.352-.704-.705-.822-.352-.234-.704-.352-1.056-.47h-.235c-.118-.234-.235-.234-.353-.234.118 0 0 0 0 0zm10.803-.352c.235-.118.47-.353.705-.47a5.59 5.59 0 01.822-.352c.234-.118.47-.118.704-.118h.704c.588 0 1.175.118 1.762.47.47.352.822.822.822 1.409v.47l-.94 5.87h-1.526l.94-5.636v-.469c0-.352-.236-.587-.47-.705-.353-.117-.705-.235-1.057-.235-.235 0-.47 0-.705.118-.234 0-.47.117-.704.235-.235.117-.47.235-.587.352-.235.117-.353.352-.587.47l-.94 5.753h-1.526l1.291-7.984h1.527l-.235.822zm10.45 5.753l.822-5.166h-1.174l.235-1.292h1.174l.235-1.174 1.644-.47-.235 1.644h2.935l-.234 1.292h-2.936l-.822 4.696v.235c0 .235.118.352.353.47.234.117.47.117.704.117.117 0 .352 0 .587-.117.235 0 .352-.117.587-.117.118 0 .235-.118.353-.118.117 0 .234-.117.352-.117l.587 1.056c-.352.118-.587.118-.822.235-.235.118-.47.235-.822.235-.235.117-.587.117-.822.117h-.822c-.47 0-.94-.117-1.291-.352-.353-.235-.588-.587-.588-1.056v-.118c0 .117 0 .117 0 0zm10.92 1.644h-1.526l1.292-7.985h1.526l-1.292 7.985zm.118-10.333h1.526l-.235 1.292h-1.526l.235-1.292zm7.045-.117h1.526l-1.761 10.45h-1.526l1.761-10.45zm7.28 2.583c.117 0 .235-.118.352-.118.118 0 .235-.117.352-.117.353-.117.705-.117 1.057-.117h.94c.352 0 .704 0 1.056.117.353 0 .587.117.94.235.352.117.587.352.704.587.118.235.235.587.352.94v.939l-.939 5.4h-1.409l.118-.351c-.235.117-.588.235-1.057.352-.47.117-.822.117-1.292.235h-.235c-.704 0-1.409-.118-1.996-.47-.587-.235-.939-.822-1.057-1.526v-.705c.118-.94.587-1.526 1.292-1.996a4.233 4.233 0 012.348-.704h.705c.235 0 .587 0 .822.117.235 0 .587.117.822.117 0-.234.117-.47.117-.587v-.47a.894.894 0 00-.235-.586c-.117-.118-.234-.235-.469-.235-.118 0-.353-.118-.47-.118h-.587c-.352 0-.705 0-1.174.118-.47.117-.94.235-1.409.47l.352-1.527zm-.587 5.401v.235c0 .352.235.587.587.822.352.117.822.235 1.292.235h.704c.352 0 .587-.118.822-.118s.47-.117.705-.234l.352-1.997h-.352c-.235 0-.47-.117-.705-.117h-1.409c-.47 0-.939.117-1.292.352-.469-.117-.704.235-.704.822zm11.272.822l.822-5.166h-1.174l.235-1.292h1.174l.235-1.174 1.526-.47-.235 1.644h2.936l-.235 1.292h-2.936l-.821 4.696v.235c0 .235.117.352.352.47.235.117.469.117.704.117.118 0 .353 0 .587-.117.235 0 .353-.117.588-.117.117 0 .234-.118.352-.118.117 0 .235-.117.352-.117l.587 1.056-.704.353c-.235.117-.47.235-.705.235-.235.117-.587.117-.822.117h-.822c-.469 0-.939-.117-1.291-.352-.353-.235-.587-.587-.587-1.057v-.117c-.118 0-.118 0-.118-.118zm13.386 1.879c-1.057 0-1.879-.352-2.583-.822-.705-.587-1.057-1.292-1.175-2.231v-1.174c.235-1.174.705-2.114 1.527-2.818.822-.705 1.761-1.175 2.701-1.292h.822c.939 0 1.761.235 2.583.822.704.587 1.174 1.292 1.174 2.23v.47c0 .235 0 .353-.117.588a5.988 5.988 0 01-1.644 3.053c-.94.822-1.996 1.174-3.171 1.291h-.117c.117-.235.117-.235 0-.117zm.235-1.41h.235c.704-.117 1.291-.351 1.878-.939.587-.47.94-1.174 1.057-1.996v-.94c0-.586-.235-1.056-.704-1.525-.353-.353-.94-.588-1.527-.588-.822 0-1.526.235-2.113.822a3.636 3.636 0 00-1.057 2.114v.822c.117.587.352 1.174.704 1.526.353.587.822.705 1.527.705zm14.677-5.753h-.939c-.235 0-.352 0-.587.118-.235.117-.47.117-.705.352-.235.117-.469.352-.822.587l-.939 5.87h-1.527l1.292-7.984h1.527l-.118.705c.352-.352.822-.587 1.174-.705.47-.117.822-.234 1.292-.234h.47l-.118 1.291zm12.681 2.583h-7.162v1.057c0 .587.235 1.057.704 1.527.353.47.94.704 1.644.704h.118c.587 0 1.056-.117 1.526-.352s.939-.47 1.409-.94c.118 0 .118-.117.235-.117l.117-.117.94 1.056c-.705.705-1.409 1.175-2.114 1.41-.704.234-1.526.47-2.231.47h-.117c-1.174 0-2.114-.353-2.701-.94-.587-.587-.939-1.41-1.057-2.231v-1.644c.235-.94.822-1.761 1.644-2.466.822-.704 1.996-1.174 3.288-1.174 1.174 0 2.114.352 2.701.94a3.64 3.64 0 011.056 2.113v.704c0-.117 0-.117 0 0zm-3.992-2.7c-.235 0-.469 0-.704.117-.235 0-.47.118-.705.235-.235.117-.47.235-.822.47-.235.235-.469.352-.587.704h5.049c-.117-.352-.352-.704-.704-.822-.353-.234-.705-.352-1.057-.47h-.235c0-.234-.117-.234-.235-.234.118 0 0 0 0 0zm10.803-.352c.235-.118.469-.353.704-.47.235-.118.47-.235.822-.352.235-.118.47-.118.705-.118h.704c.587 0 1.174.118 1.762.47.469.352.821.822.821 1.409v.47l-.939 5.87h-1.644l.94-5.636v-.469c0-.352-.235-.587-.47-.705-.352-.117-.705-.235-1.057-.235-.235 0-.47 0-.704.118-.235 0-.47.117-.705.235-.235.117-.47.235-.587.352-.235.117-.352.352-.587.47l-.939 5.753h-1.527l1.292-7.984h1.526l-.117.822zM52.622 31.39H179.2l-.235 1.292H52.387l.235-1.291zM65.067 7.084H62.6l-.94 5.519h2.466l.94-5.519zm-1.762 10.333H60.84l-.94 5.753h2.466l.94-5.753zm3.17-2.583l2.936 2.465-1.174 6.928-4.58 3.758H53.09l4.344-25.833h10.568l2.936 3.288-1.175 6.81-3.287 2.584zM74.109 2.27h6.106L76.69 23.288h5.401l-1.526 4.814H69.881L74.108 2.27zM93.13 7.084l-2.818 11.39h2.583l.705-11.39h-.47zm-.587 16.204H89.02l-1.291 4.814h-5.871l7.984-25.95h8.807l-.47 25.95H92.19l.353-4.814zm15.851-.118l3.523-21.018h6.106l-3.64 22.075-4.58 3.758h-6.575l-3.523-3.758 3.64-22.075h6.106l-3.522 21.018h2.465zM128.59 7.084h-2.465l-.94 5.519h2.466l.939-5.519zm-1.761 10.333h-2.466l-.939 5.753h2.466l.939-5.753zM130 14.834l2.935 2.465-1.174 6.928-4.58 3.758h-10.567l4.344-25.833h10.568l2.935 3.288-1.174 6.81L130 14.834zm8.454-12.682h11.155l-.822 4.932h-5.049l-.822 4.814h4.227l-.822 4.814h-4.227l-1.057 6.458h5.049l-.822 4.815h-11.155l4.345-25.833zm21.018 4.932h-2.466l-.939 5.519h2.465l.94-5.519zm-1.762 10.333h-2.465l-1.762 10.685h-6.105l4.344-25.832h10.333l3.405 3.757-1.174 6.693-3.17 2.114 2.465 2.583-1.761 10.685h-5.871l1.761-10.685zm18.905-10.333h-2.818l-2.701 16.086h2.818l.587-3.757h-1.526l.822-4.697h7.515l-1.527 9.511-4.696 3.758h-6.693l-3.523-3.758 3.053-18.317 4.697-3.758h6.81l3.523 3.758-1.175 6.575h-6.105l.939-5.401z" fill="#FFFFFE"/><path d="M180.256 56.633H5.301v2.348h174.955v-2.348z" fill="#7ED2F2"/><path d="M81.39 73.896l-2.935-2.935h-8.924l-3.875 23.132h9.511l3.992-3.64.94-5.989-2.349-2.23 2.701-1.997.94-6.34zm-7.75 15.617h-1.995l.822-4.697h1.996l-.822 4.697zm1.645-9.276h-1.996l.821-4.697h1.88l-.705 4.697zm61.879-6.341l-2.936-2.935h-8.923l-3.875 23.132h9.511l3.992-3.64.939-5.989-2.348-2.23 2.701-1.997.939-6.34zm-7.75 15.617h-1.996l.822-4.697h1.996l-.822 4.697zm1.644-9.276h-1.996l.822-4.697h1.996l-.822 4.697zM83.855 70.96h5.519L86.32 89.514h4.814l-1.41 4.58h-9.51l3.64-23.132zm14.093 0l-7.046 23.133h5.284l.94-4.345h3.052l-.352 4.344h5.284l.47-23.131h-7.632zm2.7 14.326h-2.466l2.701-9.863h.352l-.587 9.863zm9.159-14.326h5.284l-2.935 18.553h2.231l3.17-18.552h5.166l-3.17 19.609-4.11 3.523h-5.988l-2.935-3.523 3.287-19.61zm30.998 0h9.863l-.822 4.58h-4.697l-.587 4.11h3.875l-.705 4.344h-3.757l-.822 5.52h4.344l-.587 4.344h-9.98l3.875-22.897zm23.601 3.289l-2.818-3.288h-9.159l-3.757 22.897h5.401l1.527-9.042h2.113l-1.409 9.042h5.284l1.409-9.394-2.114-2.348 2.936-1.879.587-5.988zm-5.988 5.988h-2.114l.822-4.697h2.114l-.822 4.697zm12.447-9.277h5.988l3.053 3.524-.939 5.988h-5.636l.939-4.932h-2.466l-2.348 13.973h2.583l.47-3.17h-1.527l.822-4.11 6.693-.117-1.174 8.337-3.992 3.405h-6.106l-3.17-3.288 2.7-16.086 4.11-3.523z" fill="#FFFFFE"/><path d="M147.496 105.717a7.073 7.073 0 01-2.466.47c-1.056 0-1.996-.235-2.583-.822-.587-.587-.939-1.409-.939-2.348 0-1.409.587-2.701 1.644-3.523.822-.704 2.113-1.056 3.405-1.056 1.057 0 1.761.234 2.113.352l-.469 1.409c-.353-.118-.94-.352-1.644-.352-.822 0-1.409.234-1.996.587-.705.469-1.057 1.409-1.057 2.465 0 1.292.822 1.879 1.996 1.879.352 0 .705 0 .822-.117l.352-1.644H145.5l.235-1.292h2.818l-1.057 3.992zm2.819-7.162a9.611 9.611 0 012.114-.235c.704 0 1.526.118 1.996.47s.822.822.822 1.526c0 1.175-.822 1.879-1.761 2.114.469.235.704.705.704 1.409.118.822.118 1.879.352 2.114h-1.643c-.118-.235-.118-.822-.235-1.762-.118-.939-.353-1.174-1.057-1.174h-.47l-.587 3.053h-1.644l1.409-7.515zm.94 3.288h.704c.94 0 1.527-.587 1.527-1.292 0-.587-.587-.94-1.175-.94h-.587l-.469 2.232zm11.974-.352c0 1.409-.469 2.7-1.409 3.64-.704.704-1.643 1.056-2.818 1.056-1.996 0-3.17-1.409-3.17-3.17 0-1.409.47-2.818 1.409-3.64.705-.704 1.761-1.057 2.818-1.057 2.114 0 3.17 1.292 3.17 3.171zm-4.579-1.292c-.587.587-.939 1.761-.939 2.701 0 1.056.469 1.878 1.644 1.878.469 0 .939-.234 1.291-.587.587-.587.94-1.878.94-2.7 0-.94-.353-1.88-1.527-1.88-.587 0-1.057.236-1.409.588zm8.101-1.761l-.822 4.461c0 .235-.117.588-.117.94 0 .587.352 1.057 1.174 1.057s1.409-.588 1.761-1.997l.822-4.462h1.644l-.822 4.345c-.469 2.348-1.526 3.405-3.64 3.405-1.644 0-2.583-.822-2.583-2.466 0-.352 0-.704.117-1.056l.822-4.228h1.644zm5.873.117a9.32 9.32 0 011.996-.235c.705 0 1.527.118 2.114.47.469.352.822.94.822 1.644 0 .939-.47 1.644-1.057 2.113-.587.47-1.527.705-2.466.705h-.704l-.587 2.818h-1.644l1.526-7.515zm.939 3.405h.588c1.056 0 1.643-.587 1.643-1.409 0-.704-.587-.94-1.174-.94h-.704l-.353 2.349zM37.944 5.087L36.3 5.91l-1.878.94c-3.053-1.88-6.693-2.936-10.45-2.936-2.584 0-5.167.47-7.398 1.409 3.17 2.231 5.401 4.58 7.515 7.397.117-6.575 3.523-6.105 7.75-4.227-3.053 1.879-5.754 3.875-7.985 6.224-2.348-3.523-5.166-6.693-9.276-8.337-5.401 2.818-9.394 8.337-10.216 14.677L2.72 19.882c1.76-9.98 10.567-17.73 21.252-17.73 3.993 0 7.633 1.056 10.803 2.935l1.761-.822C33.013 1.917 28.668.508 23.972.508 11.994.508 2.014 9.667.956 21.174l1.527 1.174 1.761 1.409a19.237 19.237 0 008.454 15.617c0-3.993.587-7.28 1.761-10.686-5.4 3.758-7.162.705-7.984-3.757 3.288 1.292 6.576 2.348 9.746 2.818-1.644 4.227-2.466 8.454-1.41 12.916a19.433 19.433 0 009.277 2.349c2.583 0 5.166-.47 7.397-1.41l-.117 1.88a21.08 21.08 0 01-7.28 1.29c-11.625 0-21.018-9.158-21.488-20.43l-1.76-1.41v.47c0 12.564 10.45 22.897 23.131 22.897 3.523 0 6.928-.822 9.981-2.23l.117-1.88.118-2.113c4.932-2.935 8.454-7.984 9.394-13.738-3.288 1.526-6.341 2.349-9.512 2.818 5.871 3.17 3.875 5.989.235 8.807-.352-3.523-.822-6.81-1.76-9.864 4.109-.352 7.984-1.409 11.389-3.757v-.822c0-5.988-2.7-11.272-6.928-14.795l1.409-1.057a21.034 21.034 0 017.045 15.735c0 7.514-3.992 14.09-9.863 17.847l-.117 1.996c6.927-3.992 11.742-11.39 11.742-19.843 0-7.398-3.64-14.09-9.277-18.318zM23.971 19.53c2.114 0 3.875 1.761 3.875 3.875 0 2.113-1.761 3.874-3.875 3.874-2.113 0-3.874-1.76-3.874-3.874s1.76-3.875 3.874-3.875zM6.006 21.878c1.879-8.689 9.159-11.977 15.97-4.814-2.114 2.7-3.64 5.519-4.932 8.572-3.758-.705-7.398-1.762-11.038-3.758zm13.62 6.458c3.406.587 6.694.587 9.982.235 1.056 3.523 1.996 7.163 1.878 11.39-8.571 2.465-15.03-2.349-11.86-11.625zm11.156-2.818c-1.292-3.17-2.936-5.988-4.814-8.689 2.465-2.7 5.4-5.284 9.04-7.28 6.459 6.106 5.52 13.973-4.226 15.97zM19.979 79.18c-.117.587-.352 1.174-.47 1.761l-.704 2.348h2.465l-.704-2.348c-.235-.47-.352-1.174-.587-1.761zm27.124-.117c-1.761 0-2.7 1.643-2.7 3.522 0 1.879.939 3.523 2.7 3.523 1.644 0 2.7-1.527 2.7-3.523 0-1.761-.939-3.522-2.7-3.522z" fill="#7ED2F2"/><path d="M5.3 70.96v22.898h54.248L64.01 70.96H5.3zm7.163 12.917h-.822V87.4h-1.76v-9.394c.586-.117 1.526-.235 2.7-.235 1.291 0 2.23.235 2.818.822.587.47.94 1.174.94 2.114s-.236 1.644-.823 2.113c-.704.705-1.761 1.057-3.053 1.057zm9.981 3.523l-.822-2.701H18.57l-.94 2.7h-1.76l3.052-9.51h2.231l3.17 9.51h-1.878zm7.867 0c-.117-.235-.352-1.057-.587-2.231-.235-1.292-.704-1.644-1.761-1.644h-.94V87.4h-1.76v-9.394a16.49 16.49 0 012.7-.235c1.409 0 2.348.235 2.935.705.47.47.822 1.056.822 1.879 0 1.174-.822 2.113-1.761 2.348.704.235 1.057.94 1.291 1.879.353 1.174.588 2.23.705 2.7h-1.644v.118zm9.276-8.102H36.77V87.4h-1.761v-8.102h-2.7v-1.41h7.28v1.41zm7.398 8.22c-2.701 0-4.462-1.997-4.462-4.815 0-2.936 1.878-4.932 4.58-4.932 2.817 0 4.461 2.114 4.461 4.814.117 3.053-1.879 4.932-4.58 4.932zm11.39-8.22h-3.758v2.583h3.523v1.409h-3.523v4.11h-1.761v-9.511h5.518v1.409z" fill="#7ED2F2"/><path d="M28.197 79.063c-.587 0-.939 0-1.056.117v3.053h1.056c1.175 0 1.88-.587 1.88-1.527 0-1.174-.705-1.644-1.88-1.644zm-15.5 0c-.47 0-.821 0-1.056.117v3.17c.235 0 .47.118.822.118 1.291 0 2.113-.587 2.113-1.762 0-1.056-.704-1.644-1.879-1.644z" fill="#7ED2F2"/></svg>