<svg width="301" height="77" fill="none" xmlns="http://www.w3.org/2000/svg"><path fill-rule="evenodd" clip-rule="evenodd" d="M85.95 51.43h208.23l-.345 2.087H85.606l.344-2.087zm20.492-40.416h-3.968l-1.49 9.137h3.959l1.499-9.137zm-2.794 17.25H99.68l-1.612 9.613h3.968l1.612-9.612zm5.216-4.33l4.778 4.2-1.862 11.606-7.62 6.25h-17.4l7.061-43.08h17.381l4.872 5.403-1.863 11.354-5.347 4.266zm12.37-21.024h9.939l-5.701 34.967h8.886l-2.515 8.113h-17.698l7.089-43.08zm30.98 9.184l-4.405 17.773h4.322l1.052-17.791-.969.018zm-.689 25.904h-5.766l-2.17 7.992h-9.724l13.208-43.2h14.419l-.708 43.2h-9.799l.54-7.992zm26.221-.12l5.728-34.968h10.013l-6.035 36.83L180 45.99h-11.178l-5.514-6.25 6.055-36.83h9.966l-5.747 34.967h4.164zm33.132-26.864h-3.968l-1.5 9.137h4.005l1.463-9.137zm-2.795 17.25h-3.968l-1.574 9.613h3.968l1.574-9.612zm5.217-4.33l4.778 4.2-1.863 11.606-7.563 6.25h-17.409l7.06-43.08h17.372l4.918 5.403-1.863 11.354-5.43 4.266zm13.739-21.145h18.331l-1.351 8.225h-8.383l-1.323 8.113h6.903l-1.314 8.057h-6.911l-1.723 10.693h8.578l-1.332 8.113H219.96l7.079-43.2zm34.65 8.225h-4.098l-1.602 9.603h4.098l1.602-9.603zm-2.906 17.698h-4.098l-2.795 17.26h-10.004l7.061-43.08h16.999l5.645 6.24-1.863 11.243-5.589 4.266 4.257 4.07-2.795 17.26h-9.612l2.794-17.26zm31.074-17.698h-4.611l-4.406 26.863h4.611l1.015-6.147h-2.459l1.351-8.225h12.435L295.11 39.74l-7.647 6.25h-10.824l-5.952-6.315 5.002-30.524 7.638-6.24h11.103l5.701 6.24-1.612 9.855h-9.929l1.313-7.992" fill="#201600"/><path fill-rule="evenodd" clip-rule="evenodd" d="M38.876 31.728a6.418 6.418 0 11-.038 12.837 6.418 6.418 0 01.038-12.837zM27.363 41.974a62.848 62.848 0 018.187-14.316c-11.177-11.83-23.202-6.4-26.285 7.983a59.997 59.997 0 0018.098 6.333zm20.734 4.974a62.489 62.489 0 01-16.487-.465C26.46 61.945 37.07 69.88 51.171 65.82a59.72 59.72 0 00-3.074-18.918v.046zm-5.943-19.56a62.41 62.41 0 017.983 14.372c15.937-3.39 17.558-16.459 6.893-26.584a59.705 59.705 0 00-14.876 12.147v.065zM38.876.058a37.827 37.827 0 0120.743 6.167L56.732 7.63A35.395 35.395 0 003.964 32.427l2.674 1.863a32.601 32.601 0 0116.86-24.703c6.64 2.907 11.289 8.02 15.182 13.972a76.728 76.728 0 0113.124-10.246c-6.855-3.167-12.63-3.837-12.742 7.08h-.093A51.91 51.91 0 0026.7 8.078a32.294 32.294 0 0129.416 2.598l3.018-1.5 2.673-1.415a38.06 38.06 0 01-4.06 63.498l.26-3.344a35.312 35.312 0 004.601-55.953l-2.72 1.49a32.406 32.406 0 0111.458 24.712v1.444c-5.515 4.098-11.942 5.71-18.714 6.352a76.472 76.472 0 012.962 16.394c6-4.583 9.315-9.37-.316-14.568v-.093a51.922 51.922 0 0015.704-4.658 32.6 32.6 0 01-15.416 22.96l-.158 3.447-.149 3.13A38.08 38.08 0 01.77 38.165v-.783l2.794 2.152a35.395 35.395 0 0047.318 31.921l.187-3.204a32.386 32.386 0 01-27.488-1.453c-1.863-7.452-.41-14.55 2.273-21.498A75.362 75.362 0 019.85 40.642c1.425 7.452 4.238 12.51 13.18 6.232l.075.065a52.04 52.04 0 00-2.85 17.81A32.46 32.46 0 016.414 38.714l-2.85-2.263-2.617-1.928A38.19 38.19 0 0138.876.059z" fill="#0C4F9E"/><path d="M87.674 75.236L83.566 57.81h2.99l3.382 14.502 8.215-14.502h2.999L91.27 75.236h-3.596zm33.533-7.19h-11.746a.391.391 0 010 .083.154.154 0 000 .112l-.047.102a.149.149 0 00-.01.052.14.14 0 00.01.05 3.26 3.26 0 00-.074.616 2.961 2.961 0 000 .652 4.453 4.453 0 001.09 2.543 3.386 3.386 0 002.71 1.164h.14a6.038 6.038 0 002.599-.54 9.33 9.33 0 002.254-1.528 2.07 2.07 0 00.307-.26l.27-.29 1.519 1.696a10.313 10.313 0 01-3.475 2.366 10.44 10.44 0 01-3.725.689h-.28a6.223 6.223 0 01-4.443-1.63 5.818 5.818 0 01-1.723-3.66v-.997c0-.336 0-.68.084-1.025l.084-.354.083-.391a8.75 8.75 0 012.795-4.117 7.935 7.935 0 015.449-1.863 6.289 6.289 0 014.527 1.48 5.535 5.535 0 011.732 3.531v1.136a2.422 2.422 0 01-.112.392l-.018-.01zm-6.455-4.462h-.056c-.341.003-.682.04-1.015.111a5.544 5.544 0 00-1.072.345 6.427 6.427 0 00-1.285.755 4.258 4.258 0 00-1.043 1.117h8.225a2.896 2.896 0 00-1.109-1.453 4.836 4.836 0 00-1.658-.764l-.466-.083h-.465l-.056-.028zm17.698-.494c.37-.271.763-.511 1.173-.717a6.937 6.937 0 011.276-.494c.38-.108.765-.192 1.155-.251a7.616 7.616 0 011.09-.094h.056c1.013-.01 2.01.26 2.878.783a2.743 2.743 0 011.407 2.273c.009.142.009.285 0 .428.009.155.009.31 0 .466l-1.621 9.752h-2.506l1.565-9.436a.275.275 0 000-.12.544.544 0 000-.14v-.233a1.515 1.515 0 00-.81-1.239 3.383 3.383 0 00-1.761-.428 5.332 5.332 0 00-1.108.13 5.425 5.425 0 00-1.174.391 7.726 7.726 0 00-1.052.615c-.342.246-.654.53-.932.848l-1.574 9.612h-2.533l2.198-13.357h2.533l-.26 1.211zm17.185 9.529l1.397-8.663h-1.863l.345-2.077h1.863l.335-1.956 2.608-.717-.437 2.673h4.918l-.354 2.077h-4.918l-1.267 7.825a1.046 1.046 0 000 .176.222.222 0 000 .14.93.93 0 00.512.736c.372.177.781.26 1.192.242.314 0 .626-.035.932-.102a8.04 8.04 0 001.006-.27 4.67 4.67 0 00.559-.215l.549-.27.885 1.807a12 12 0 01-1.155.54c-.411.16-.831.298-1.257.41a7.604 7.604 0 01-1.351.29c-.426.053-.856.081-1.285.083a4.499 4.499 0 01-2.208-.503 2.002 2.002 0 01-1.025-1.677v-.288c.003-.087.009-.175.019-.261zm17.959 2.617h-2.506l2.198-13.357h2.506l-2.198 13.357zm.298-17.036h2.505l-.372 2.245H167.5l.392-2.245zm11.466-.373h2.496l-2.878 17.41h-2.506l2.888-17.41zm12.053 4.434l.559-.177.559-.168a11.64 11.64 0 011.704-.288c.569-.056 1.1-.094 1.603-.094.602.001 1.203.05 1.797.15.499.077.984.22 1.444.428.493.224.913.582 1.211 1.034a3.53 3.53 0 01.503 1.583c.019.242.019.485 0 .727a5.9 5.9 0 01-.084.773l-1.49 9.007h-2.357l.112-.633a6.91 6.91 0 01-1.686.587c-.703.17-1.42.273-2.142.307h-.494a7.784 7.784 0 01-3.297-.708 2.864 2.864 0 01-1.696-2.487v-.559a5.04 5.04 0 01.066-.624 4.432 4.432 0 012.133-3.306 8.985 8.985 0 013.94-1.24c.158.01.317.01.475 0h1.043c.484 0 .931.094 1.444.168.439.074.874.17 1.304.29.057-.328.097-.657.121-.988a3.932 3.932 0 000-.736 1.633 1.633 0 00-.354-.932 1.935 1.935 0 00-.764-.465 3.913 3.913 0 00-.866-.205 7.362 7.362 0 00-.932-.056 8.084 8.084 0 00-1.956.26 18.15 18.15 0 00-2.347.746l.447-2.394zm-1.034 8.858a1.09 1.09 0 000 .242 2.11 2.11 0 000 .252 1.553 1.553 0 001.043 1.323 5.649 5.649 0 002.199.4h1.006a8.371 8.371 0 001.406-.28 6.081 6.081 0 001.174-.437l.568-3.4-.233-.075-.326-.093a8.8 8.8 0 00-1.155-.205 12.03 12.03 0 00-1.462-.083h-.773a6.099 6.099 0 00-2.217.633 2.23 2.23 0 00-1.23 1.723zm18.629 1.5l1.398-8.663h-1.863l.344-2.077h1.863l.336-1.956 2.608-.717-.438 2.673h4.918l-.373 2.077h-4.918l-1.248 7.825a1.307 1.307 0 000 .176.3.3 0 000 .14.932.932 0 00.512.736c.372.177.782.26 1.193.242.313 0 .625-.035.931-.102a8.078 8.078 0 001.016-.261 4.6 4.6 0 00.558-.214l.55-.27.885 1.807c-.375.2-.761.38-1.155.54-.411.16-.831.297-1.258.41-.44.137-.892.234-1.35.288-.427.055-.856.083-1.286.084a4.498 4.498 0 01-2.207-.503 1.995 1.995 0 01-.732-.704 1.994 1.994 0 01-.293-.972v-.289c-.005-.09-.002-.18.009-.27zm21.992 2.99a6.65 6.65 0 01-4.21-1.407 5.284 5.284 0 01-1.947-3.8 6.582 6.582 0 010-.931c0-.327.047-.662.093-1.007a7.633 7.633 0 012.478-4.657 8.655 8.655 0 014.453-2.123c.204 0 .428-.066.652-.084a5.48 5.48 0 01.661 0h.112a6.915 6.915 0 014.173 1.36 4.903 4.903 0 011.974 3.725 7.99 7.99 0 010 .848c0 .313-.032.625-.093.931a7.917 7.917 0 01-2.794 5.002 8.71 8.71 0 01-5.142 2.106h-.438l.028.037zm.317-2.161h.512a5.343 5.343 0 003.055-1.49 5.582 5.582 0 001.677-3.289c.051-.254.079-.513.084-.773a6.129 6.129 0 000-.717 3.723 3.723 0 00-1.146-2.487 3.595 3.595 0 00-2.571-.931 4.908 4.908 0 00-3.399 1.387 6.072 6.072 0 00-1.817 3.503c0 .254-.018.497-.056.726-.014.22-.014.442 0 .662a3.728 3.728 0 001.165 2.487 3.604 3.604 0 002.496.922zm24.171-9.697h-.577c-.326 0-.643 0-.932.047a4.454 4.454 0 00-.931.186c-.432.121-.845.3-1.23.531a7.742 7.742 0 00-1.276.932l-1.611 9.752h-2.534l2.199-13.357h2.533l-.205 1.21a5.647 5.647 0 011.984-1.09 7.285 7.285 0 012.143-.316h.372c.024.01.051.01.075 0h.335l-.345 2.105zm20.847 4.304h-11.774v.083a.235.235 0 000 .112.984.984 0 01-.047.103.129.129 0 00-.01.051c0 .018.003.035.01.051a4.1 4.1 0 00-.074.615 3.03 3.03 0 00.046.652 4.59 4.59 0 001.09 2.543 3.395 3.395 0 002.711 1.164h.149a5.963 5.963 0 002.589-.54 9.311 9.311 0 002.254-1.528c.106-.079.206-.166.298-.26.103-.094.196-.196.28-.29l1.509 1.696a10.245 10.245 0 01-3.54 2.357c-1.189.456-2.452.69-3.726.689h-.288a6.25 6.25 0 01-4.443-1.63 5.869 5.869 0 01-1.724-3.66v-.997c0-.336.047-.68.094-1.025l.083-.354c0-.13.047-.26.075-.391a8.842 8.842 0 012.794-4.117 7.899 7.899 0 015.449-1.863 6.327 6.327 0 014.481 1.5 5.477 5.477 0 011.723 3.53v1.136c.011.124.008.25-.009.373zm-6.465-4.471h-.056a5.03 5.03 0 00-1.006.111 5.576 5.576 0 00-1.08.345 7.034 7.034 0 00-1.286.755c-.41.309-.763.687-1.043 1.117h8.234a2.962 2.962 0 00-1.117-1.453 4.774 4.774 0 00-1.658-.764 4.099 4.099 0 00-.466-.083 3.895 3.895 0 00-.466 0l-.056-.028zm17.698-.494a7.308 7.308 0 011.174-.717 6.678 6.678 0 011.276-.494c.379-.11.765-.193 1.155-.251a7.354 7.354 0 011.08-.094h.065a5.485 5.485 0 012.888.783 2.723 2.723 0 011.397 2.273c.01.142.01.285 0 .428a4.036 4.036 0 01-.046.466l-1.63 9.752h-2.506l1.555-9.436a.49.49 0 000-.12v-.373a1.564 1.564 0 00-.81-1.239 3.391 3.391 0 00-1.77-.428 5.781 5.781 0 00-2.282.522 7.66 7.66 0 00-1.043.614 5.58 5.58 0 00-.931.848l-1.575 9.612h-2.561L285.2 61.88h2.534l-.205 1.211" fill="#201600"/></svg>