<svg width="79" height="59" fill="none" xmlns="http://www.w3.org/2000/svg"><path fill-rule="evenodd" clip-rule="evenodd" d="M78.43 24.018c-.723-4.146-6.073-4.548-9.551-3.906-3.479.642-7.758 2.487-12.118 4.52-1.673.78-3.61 1.81-5.477 2.835-1.462-.258-2.883-.454-4.102-.454-2.916 0-5.376 1.044-6.688 1.579-1.31.535-1.712.99-1.605 1.258.107.267.856.133 2.087-.295 1.23-.428 2.274-.883 5.056-1.177.947-.1 2.071-.017 3.313.164-2.222 1.242-4.154 2.343-5.131 2.805-2.033.963-4.866 2.675-10.003 2.863-5.137.187-6.662-2.034-8.346-4.174-1.686-2.14-3.318-6.312-4.95-9.335-1.632-3.023-5.242-4.895-5.242-4.895 4.04-.936 7.623-3.531 8.051-7.517.428-3.986-2.139-7.008-6.927-7.544C12.008.21 7.889 1.895 5.16 3.795c-2.729 1.9-4.387 5.324-3.852 7.49.534 2.167 2.112 2.542 3.317 2.194 1.204-.348 1.712-1.685 1.551-2.194-.16-.508-.776-1.204-1.337-.99-.562.215-.83.081-.83.081-1.39-1.471-.32-4.494 2.676-6.206 2.699-1.543 5.074-1.755 7.708-1.373a20.602 20.602 0 00-2.896 1.691c-2.113 1.472-3.477 4.36-3.825 8-.348 3.638-.215 5.323-.456 10.192-.24 4.869-.48 7.918-1.364 8.961-.882 1.044-2.62 1.872-3.477 2.408-.856.535-.722 1.364.535 1.123 1.257-.24 2.73-1.122 4.12-1.792 1.39-.668 2.809-1.043 5.136-1.07 2.328-.027 2.247.053 2.381-.375.134-.428-.16-.509-.936-1.15-.776-.643-1.043-1.018-.99-2.623.038-1.136.022-7.24.01-11.522 1.718.444 2.346 2.72 2.851 4.567.535 1.953 1.311 5.11 2.569 7.41 2.267 4.15 4.6 7.116 9.228 8.56 4.628 1.446 8.641 0 12.573-1.497 3.602-1.372 8.3-4.38 11.985-6.686 1.816.382 3.806.871 5.913 1.335 4.735 1.043 8.855 1.284 11.77.99 2.915-.293 9.632-3.155 8.91-7.301zm-65.806-9.345l-.003-1.918c0-2.3-.027-6.5 1.551-7.999 1.07-1.016 1.578-1.351 2.184-1.522 2.021.744 2.37 2.268 2.554 4.093.214 2.113-.776 4.013-2.595 5.671-1.27 1.158-2.85 1.546-3.69 1.675zm54.17 14.722c-3.371.295-6.53-.322-9.579-.803-1.1-.174-2.334-.428-3.598-.682 3.883-2.206 9.959-4.404 13.257-4.829 3.53-.454 5.056.615 5.002 2.488-.053 1.873-1.712 3.531-5.083 3.826zm-35.49-14.732c.283.126.15.493.15 1.136v8.165c0 .45.172.707.515.493.342-.214 1.07-.793 1.285-.708.214.086.708.301.043 1.372-.664 1.072-1.886 2.53-2.829 2.636-.942.107-2.313 0-2.892-.707-.579-.708-.815-1.287-.815-2.058v-7.028c0-.58-.128-.6-.471-.6-.343 0-.921-.022-.986-.364-.064-.343.064-.494.643-.708.579-.214 3.836-1.243 4.393-1.414.557-.172.772-.3.964-.215zM28.52 12.2c.364-1.008.45-1.779.385-2.271-.064-.493-.47-.708-.45-.9.021-.194.75-.43 1.586-.708.836-.278 1.628-.643 2.165-.771.535-.129.857.514.15 2.4-.708 1.886-2.058 3.129-2.786 3.557-.728.429-1.216.608-1.436.279-.13-.193.021-.579.386-1.586zm13.157 11.465c-.922 1.03-1.95 2.079-3.557 1.736-1.607-.343-2.421-1.65-2.421-3.086V15.65c0-.668.056-.743-.258-.853-.746.055-1.234-.011-1.2-.261.086-.644.642-.601 1.328-1.2a15.08 15.08 0 002.508-2.915c.793-1.221 1.114-2.872 1.35-3.558.236-.685.407-.985.772-.857.364.13.3.365.3 1.072v4.691c.074.12.17.19.3.174.492-.065.965-.28 1.222-.258.256.021.343.386.343.707 0 .293-.06.62-1.865 1.256v7.637c0 .601-.236 1.05.364.793s1.158-.792 1.543-.642c.386.15.193 1.199-.729 2.228zm9.351-2.69c-.921 1.03-1.95 2.08-3.558 1.736-1.607-.343-2.421-1.65-2.421-3.086V12.96c0-.668.057-.743-.258-.853-.745.055-1.233-.012-1.2-.261.087-.643.643-.6 1.33-1.2.685-.6 1.714-1.694 2.507-2.915.793-1.221 1.113-2.871 1.35-3.557.236-.686.407-.986.771-.857.365.129.3.364.3 1.072v4.69c.075.12.17.191.301.174.492-.065.965-.278 1.221-.257.257.022.343.385.343.707 0 .292-.06.62-1.865 1.256v7.637c0 .601-.235 1.05.365.794.6-.258 1.158-.793 1.542-.643.386.149.193 1.198-.728 2.227zm12.16-14.241c-.972-.906-2.783-1.9-5.235-.597-2.452 1.303-3.998 2.938-5.169 6.494-1.17 3.556 2.408 6.516 3.247 6.913.84.398 2.143 1.149 4.13-.198 1.989-1.348 2.718-2.74 2.938-3.247.221-.508-.021-1.237-.773-.729-.75.508-1.789 1.768-3.38 1.282-1.19-.364-1.675-1.162-1.982-1.873 1.048-.677 4.314-2.786 5.495-3.56 1.413-.928 1.546-.906 1.767-1.525.22-.62-.066-2.055-1.038-2.96zm-3.203 4.218c-.807.89-1.836 1.664-3.542 2.485-.266-.865-.4-2.149.582-3.876 1.281-2.253 2.607-2.938 3.159-2.12.552.818.662 2.561-.199 3.511zm6.207-4.483c-.28-.14-.442-.089-.795-.022-.354.066-.597-.2-.398-.464.2-.265.862-.751 1.48-1.304.618-.552 1.237-1.06 1.944-.994.707.067 1.59.133 2.408 1.569 0 0 1.192-1.657 1.944-2.077 0 0 1.103 1.127 1.81 1.48.708.353 1.127.597 1.79.066.663-.53.795-.618.993-.441.199.176-.044 1.082-1.082 2.076s-2.164 1.878-3.158 1.59c-.994-.287-2.143-1.126-2.143-1.126v6.427c0 .53.155.553.663.31.508-.243 1.038-.73 1.325-.464.287.265.243 1.038-.928 2.23-1.17 1.193-1.347 1.613-3.269 1.613-1.922 0-2.54-2.099-2.54-2.673V7.02c0-.442.133-.464-.044-.552zM11.429 44.28l1.858-3.684s-2.478-1.532-5.575-1.532-5.152 1.435-6.032 4.075c-.88 2.641.294 5.477 1.597 6.097 1.305.62 3.652 1.434 4.696 1.891 1.043.457 1.597 2.023.75 2.805-.848.782-2.772 1.467-5.87-1.207l-2.02 3.749s2.706 2.184 6 2.184c3.293 0 6.064-1.434 6.976-4.467.914-3.032-.195-5.967-3.031-6.945-2.837-.977-4.728-1.075-4.5-2.934.228-1.858 3.521-1.629 5.152-.032zm17.313-1.549c-1.011-2.674-4.337-3.162-5.184-3.162h-8.184v18.585h4.76v-6.097h3.326c1.206 0 2.478-.098 4.304-1.597 1.826-1.5 1.989-5.055.978-7.729zm-6.424 5.478h-2.184v-4.858h1.63c1.467 0 2.543.587 2.543 2.511 0 1.923-1.075 2.347-1.989 2.347zm17.965-9.287c-5.623 0-10.182 4.45-10.182 9.94 0 5.49 4.559 9.94 10.182 9.94 5.624 0 10.183-4.45 10.183-9.94 0-5.49-4.56-9.94-10.183-9.94zm0 15.263c-2.891 0-5.235-2.384-5.235-5.323 0-2.94 2.344-5.323 5.235-5.323 2.891 0 5.235 2.383 5.235 5.323 0 2.939-2.344 5.322-5.235 5.322zm16.19-3.007l4.422 6.96h5.947l-5.686-7.51s.796 0 2.298-.927c1.501-.928 2.34-4.064 1.413-6.67-.928-2.607-3.888-3.446-5.567-3.446h-7.686v18.553h4.859v-6.96zm2.65-7.662c.796.265 1.282 1.634 1.105 2.827-.176 1.193-2.032 1.723-2.65 1.723h-1.105v-4.77c1-.006 1.92-.023 2.65.22zm19.438-3.931H65.838v3.93h3.976v14.623h4.77V43.516h3.977v-3.931z" fill="#8298AB"/></svg>