<svg width="89" height="59" fill="none" xmlns="http://www.w3.org/2000/svg"><path fill-rule="evenodd" clip-rule="evenodd" d="M25.619 38.495h3.551l-3.551-5.919-3-4.984-12.743 7.654 1.947 3.249h13.796zm33.037 0h17.347L65.205 20.504 53.264.643l-4.92 2.96-7.812 4.695 7.813 13.007 10.31 17.189zm-6.063 5.931a7.723 7.723 0 00-4.21-1.25h-.039c-4.287.027-7.772 3.526-7.772 7.813 0 4.288 3.485 7.786 7.772 7.812h.04c1.552 0 2.986-.46 4.21-1.249v.815h3.59V38.495h-3.59v5.931zm0 7.379c-.381 1.973-2.13 3.484-4.21 3.484h-.039a4.31 4.31 0 01-4.26-4.3 4.291 4.291 0 014.26-4.288h.04c2.078 0 3.828 1.5 4.21 3.473v1.63zm16.86-7.379a7.686 7.686 0 00-4.208-1.249h-.04c-4.287.026-7.772 3.525-7.772 7.812 0 4.288 3.485 7.786 7.772 7.812h.04a7.68 7.68 0 004.208-1.249v.815h3.591V43.571h-3.59v.855zm0 7.379c-.381 1.973-2.13 3.484-4.208 3.484h-.04a4.31 4.31 0 01-4.26-4.3 4.292 4.292 0 014.26-4.288h.04c2.077 0 3.827 1.5 4.208 3.473v1.63zm16.36-1.79c-.13-.066-.315-.131-.526-.21-.802-.276-2.104-.618-3.919-1.012-1.591-.356-2.393-.816-2.393-1.395 0-.407.144-.736.42-.973.369-.316 1.026-.473 1.973-.473.96 0 1.657.21 2.065.618.25.25.434.696.552 1.328H87.8c0-1.867-.763-3.209-2.262-4.024a1.493 1.493 0 00-.25-.131c-1.04-.487-2.42-.737-4.142-.737-2.092 0-3.67.553-4.721 1.67-.842.894-1.25 1.986-1.25 3.275 0 1.605.79 2.762 2.394 3.512.605.289 2.078.697 4.42 1.197 1.564.342 2.352.828 2.352 1.447 0 .368-.157.684-.499.973-.434.368-1.092.552-1.973.552-1.17 0-1.999-.197-2.485-.578-.487-.368-.737-.907-.737-1.591h-3.998c0 1.815.763 3.17 2.301 4.063 1.224.697 2.828 1.052 4.815 1.052 1.328 0 2.51-.223 3.524-.657.21-.092.395-.184.592-.29 1.565-.867 2.354-2.248 2.354-4.142 0-1.553-.803-2.71-2.42-3.473zM12.85 44.427a7.762 7.762 0 00-4.222-1.249h-.04C4.314 43.204.829 46.703.829 50.99c0 4.288 3.485 7.786 7.76 7.812h.039a7.76 7.76 0 004.222-1.249v.815h3.59V43.571h-3.59v.855zm0 7.379a4.317 4.317 0 01-4.222 3.484h-.04a4.308 4.308 0 01-4.247-4.3c0-2.354 1.907-4.274 4.247-4.288h.04c2.091 0 3.84 1.5 4.222 3.473v1.63zm22.41-9.798h3.907v-3.433H35.26v3.433zm0 16.36h3.906v-15.19H35.26v15.19zm-5.379-13.94a7.763 7.763 0 00-4.222-1.25h-.04c-4.287.026-7.772 3.525-7.772 7.812 0 4.288 3.485 7.786 7.773 7.812h.039a7.76 7.76 0 004.222-1.249v.815h3.59V38.495h-3.59v5.931zm0 7.378a4.317 4.317 0 01-4.222 3.484h-.04a4.31 4.31 0 01-4.26-4.3 4.292 4.292 0 014.26-4.288h.04c2.091 0 3.84 1.5 4.222 3.473v1.63zm22.7-13.31l-4.235-7.075-10.403-17.308L25.62 21.53l-.421.25.42.697 9.628 16.019H52.58z" fill="#8298AB"/></svg>