<svg width="108" height="38" fill="none" xmlns="http://www.w3.org/2000/svg"><path fill-rule="evenodd" clip-rule="evenodd" d="M27.387 1.999a4.812 4.812 0 110 9.624H5.38a4.812 4.812 0 110-9.624h22.008zm-2.212 12.61a4.812 4.812 0 110 9.625H12.65a1.99 1.99 0 00-1.984 1.907v6.272a4.812 4.812 0 01-9.624 0V21.739a7.13 7.13 0 017.129-7.13h17.005zm9.21-8.812a4.813 4.813 0 019.625 0v26.65a4.812 4.812 0 11-9.625 0V5.797zm59.231 21.917l1.934-.005c.395 0 .716-.32.716-.716a.66.66 0 00-.05-.274l-7.192-12.084L77.79 34.087a4.808 4.808 0 01-4.044 2.405 1 1 0 01-.145.01H55.318a7.13 7.13 0 01-7.13-7.129V5.797a4.813 4.813 0 019.625 0v19.096a1.989 1.989 0 001.907 1.984h10.227c.263-.08 1.068-.354 1.313-.735L84.106 3.904a5.624 5.624 0 014.863-2.8 5.61 5.61 0 014.86 2.806l12.519 21.016a7.196 7.196 0 01-5.711 11.576H86.046a4.394 4.394 0 110-8.788h7.57z" fill="#8298AB"/></svg>