<svg width="65" height="59" fill="none" xmlns="http://www.w3.org/2000/svg"><path fill-rule="evenodd" clip-rule="evenodd" d="M19.655 49.462h-1.379l-.849 7.217h-.318l-1.062-7.217h-2.123l-.955 7.217h-.212l-1.061-7.217h-1.38l1.274 9.34h2.335l1.06-7.324h.107l.955 7.323h2.441l1.168-9.339zm2.123 9.34h1.486v-3.503h2.972v3.502h1.485v-9.233h-1.486v3.502h-2.972v-3.502h-1.486v9.233zm13.796-4.989c0-2.76-1.273-4.458-3.608-4.458-2.547 0-3.608 1.699-3.608 4.458 0 2.547.849 4.988 3.608 4.988 2.653 0 3.608-2.44 3.608-4.988zm.637 4.988h4.245V56.68h-2.76v-7.217h-1.485v9.34zm14.433-9.233h-2.76l-2.016 9.233h1.592l.318-1.698h2.972l.318 1.698h1.486l-1.91-9.233zm-1.804 2.017h.85l.743 4.033H47.99l.849-4.033zM5.86 58.801h3.82V56.68H6.602v-1.804H9.68V53.6H6.602v-2.016H9.68v-2.123H5.116v7.428L2.57 49.463H.234v9.34H1.72l-.106-7.324 2.653 7.323H5.86zm35.233 0h4.244V56.68h-2.759v-7.217h-1.485v9.34zm17.192-1.91l-2.653-7.428h-2.335V58.8h1.486l-.106-7.323L57.33 58.8h3.396c3.078 0 3.715-1.592 3.715-5.094-.107-2.865-.956-4.245-3.715-4.245h-2.547v4.245l.106 3.184zm1.486-2.866v-2.547h1.061c1.592 0 2.334.531 2.334 2.654v-.107c0 2.123-.742 2.76-2.334 2.654h-1.061v-2.654zm-25.577-.212c0 1.38-.106 2.972-2.228 2.972-2.123 0-2.335-1.592-2.335-2.972 0-1.273.637-2.335 2.335-2.335s2.228 1.062 2.228 2.335zM12.227 19.43c0-.637.424-1.061.742-.743 3.821 3.82 17.936 14.221 17.83 23.347-.107.53-.531.849-1.062.849-10.506-.743-19.102-4.881-17.51-23.453zM44.913 3.192C41.942 1.6 38.864.857 35.15.645c-.743 0-1.062.53-1.167 1.167-.319 4.776-.213 7.429-.319 12.098-.107.743.425 1.698 1.274.637 3.926-3.82 6.155-5.943 10.08-9.764.638-.53.426-1.379-.105-1.591zm-25.47 0C22.521 1.6 25.598.857 29.313.645c.743 0 1.061.53 1.167 1.167.319 4.776.213 7.429.319 12.098.106.743-.425 1.698-1.38.637-3.926-3.82-6.155-5.943-9.975-9.764-.744-.53-.425-1.379 0-1.591zm27.91 2.972c-7.428 7.11-14.008 11.885-13.69 24.62 0 .531.425 1.062 1.168.425 6.155-6.05 9.657-9.339 15.918-15.388.956-.955 1.168-1.804.85-3.29-.637-2.653-1.167-3.82-2.76-5.943-.424-.424-.848-.637-1.485-.424zm-30.245 0c7.429 7.11 14.01 11.885 13.69 24.62 0 .531-.424 1.062-1.167.425-6.155-6.05-9.657-9.339-15.918-15.388-.956-.955-1.168-1.804-.85-3.29.637-2.653 1.168-3.82 2.76-5.943.424-.424.849-.637 1.486-.424zm35.234 13.265c0-.637-.319-1.061-.743-.743-3.714 3.82-17.935 14.221-17.83 23.347.107.53.638.849 1.169.849 10.4-.743 18.995-4.881 17.404-23.453z" fill="#8298AB"/></svg>