<svg width="108" height="57" fill="none" xmlns="http://www.w3.org/2000/svg"><path d="M25.937 30.023h7.403L44.25.938h-6.875l-4.9 13.044L33.32.938h-7.315L15.096 30.023h6.875l4.808-12.868-.842 12.868zM45.14.938L34.234 30.023h6.875L52.016.938H45.14z" fill="#8298AB"/><path fill-rule="evenodd" clip-rule="evenodd" d="M14.303 19.997C4.697 31.28-4.366 46.29 3.64 53.203c7.688 6.64 17.281 2.801 23.887.158l.175-.07c6.61-2.644 79.676-34.373 79.676-34.373.705-.353.573-.794-.308-.574-.15.038-14.307 3.873-30.636 8.297l.81-2.259h-8.02l2.636-7.05h6.61l2.033-5.421h-6.61l2.267-6.126h6.961L84.968.937H63.99l-7.203 8.726L60.114.937H53.15L42.33 30.023h6.874l4.62-12.163.316 12.163 9.89-.022-36.506 9.893c-10.049 2.82-21.507-3.327-13.222-19.897zm46.659 8.087l-.441-15.16L70.915 1.512l-9.954 26.572z" fill="#8298AB"/></svg>