<svg width="24" height="30" fill="none" xmlns="http://www.w3.org/2000/svg"><path d="M18.019 11.023H6.154a.474.474 0 100 .95H18.02a.474.474 0 100-.95zM6.154 8.176H10.9a.475.475 0 100-.95H6.154a.474.474 0 100 .95zm11.865 6.644H6.154a.474.474 0 100 .95H18.02a.474.474 0 100-.95zm0 3.797H6.154a.474.474 0 100 .95H18.02a.474.474 0 100-.95zm0 3.797H6.154a.474.474 0 100 .95H18.02a.474.474 0 100-.95z" fill="#0076BD"/><path d="M16.317.582H.934v28.475h22.305V7.504L16.317.582zm.278 1.62l5.024 5.024h-5.024V2.202zM1.883 28.108V1.531h13.763v6.644h6.644v19.933H1.883z" fill="#0076BD"/></svg>