<svg width="34" height="34" fill="none" xmlns="http://www.w3.org/2000/svg"><g clip-path="url(#clip0)" fill="#fff"><path d="M33.193 31.631l-9.31-9.31c4.241-5.161 3.953-12.823-.868-17.643C17.887-.45 9.544-.45 4.416 4.678s-5.128 13.471 0 18.6c4.82 4.818 12.48 5.11 17.643.866l9.31 9.31a1.29 1.29 0 101.824-1.823zM21.192 21.454c-4.122 4.122-10.83 4.122-14.952 0-4.123-4.123-4.123-10.83 0-14.953 4.122-4.122 10.83-4.122 14.952 0 4.122 4.123 4.122 10.83 0 14.953z"/><path d="M20.028 12.688h-5.023V7.664a1.29 1.29 0 10-2.579 0v5.024H7.403a1.29 1.29 0 100 2.578h5.023v5.024a1.29 1.29 0 102.579 0v-5.024h5.023a1.29 1.29 0 100-2.578z"/></g><defs><clipPath id="clip0"><path fill="#fff" d="M.57.832h33v33h-33z"/></clipPath></defs></svg>